<svg xmlns="http://www.w3.org/2000/svg" version="1.1" xmlns:xlink="http://www.w3.org/1999/xlink"
	xmlns:svgjs="http://svgjs.dev/svgjs" viewBox="0 0 800 800" opacity="0.1">
	<defs>
		<filter id="llleaves-blur-2" x="-100%" y="-100%" width="400%" height="400%">
			<feGaussianBlur in="SourceGraphic" stdDeviation="2"></feGaussianBlur>
		</filter>
		<filter id="llleaves-blur-3" x="-100%" y="-100%" width="400%" height="400%">
			<feGaussianBlur in="SourceGraphic" stdDeviation="4"></feGaussianBlur>
		</filter>
		<filter id="llleaves-blur-4" x="-100%" y="-100%" width="400%" height="400%">
			<feGaussianBlur in="SourceGraphic" stdDeviation="12"></feGaussianBlur>
		</filter>
	</defs>
	<g fill="#f5a623">
		<path d="M709 450H759C787 450 809 472 809 500H759C731 500 709 478 709 450Z "
			transform="matrix(-0.2217804157618223,0.2141708579732376,-0.2141708579732376,-0.2217804157618223,1029.062493100511,417.7900162851783)"
			filter="url(#llleaves-blur-2)" opacity="0.47"></path>
		<path d="M104 354H154C182 354 204 376 204 404H154C126 404 104 382 104 354Z "
			transform="matrix(-0.1518551616711844,0.24301905863550757,-0.24301905863550757,-0.1518551616711844,269.4899181202197,399.12817124351074)"
			filter="url(#llleaves-blur-3)" opacity="0.44"></path>
		<path d="M706 74H756C784 74 806 96 806 124H756C728 124 706 102 706 74Z "
			transform="matrix(-0.08188543965239335,0.25201746955252885,-0.25201746955252885,-0.08188543965239335,842.8551218629099,-83.41854845612485)"
			filter="url(#llleaves-blur-3)" opacity="0.40"></path>
		<path d="M103 245H153C181 245 203 267 203 295H153C125 295 103 273 103 245Z "
			transform="matrix(-0.1518551616711844,0.24301905863550757,-0.24301905863550757,-0.1518551616711844,241.84898556727825,273.81897767998714)"
			filter="url(#llleaves-blur-3)" opacity="0.44"></path>
		<path d="M256 724H306C334 724 356 746 356 774H306C278 774 256 752 256 724Z "
			transform="matrix(-0.3768389022379417,-0.1599586237680794,0.1599586237680794,-0.3768389022379417,301.5036948825187,1080.1996766492507)"
			opacity="0.63"></path>
		<path d="M135 544H185C213 544 235 566 235 594H185C157 594 135 572 135 544Z "
			transform="matrix(-0.2632942752346232,0.1843606362867454,-0.1843606362867454,-0.2632942752346232,338.61064296556344,684.7077248954527)"
			filter="url(#llleaves-blur-2)" opacity="0.49"></path>
		<path d="M361 721H411C439 721 461 743 461 771H411C383 771 361 749 361 721Z "
			transform="matrix(-0.38302280056992005,-0.11710182183244607,0.11710182183244607,-0.38302280056992005,481.0644119472323,1079.8638579982955)"
			opacity="0.61"></path>
		<path d="M387 194H437C465 194 487 216 487 244H437C409 244 387 222 387 194Z "
			transform="matrix(-0.3818335419618143,-0.03340610627560887,0.03340610627560887,-0.3818335419618143,596.5453205629545,317.2200141320784)"
			filter="url(#llleaves-blur-2)" opacity="0.59"></path>
		<path d="M579 736H629C657 736 679 758 679 786H629C601 786 579 764 579 736Z "
			transform="matrix(-0.2257572962544083,0.21052208456288518,-0.21052208456288518,-0.2257572962544083,931.2086456963784,800.3829112595499)"
			filter="url(#llleaves-blur-2)" opacity="0.47"></path>
		<path d="M599 353H649C677 353 699 375 699 403H649C621 403 599 381 599 353Z "
			transform="matrix(-0.22144580806568662,0.21384773107711527,-0.21384773107711527,-0.22144580806568662,873.5527717817803,322.91933797978174)"
			filter="url(#llleaves-blur-2)" opacity="0.47"></path>
		<path d="M703 145H753C781 145 803 167 803 195H753C725 195 703 173 703 145Z "
			transform="matrix(-0.20176054154649797,0.22407778244025597,-0.22407778244025597,-0.20176054154649797,943.0189107993564,35.56872188539194)"
			filter="url(#llleaves-blur-2)" opacity="0.46"></path>
		<path d="M496 325H546C574 325 596 347 596 375H546C518 375 496 353 496 325Z "
			transform="matrix(-0.2846179986085077,0.16432427811283443,-0.16432427811283443,-0.2846179986085077,758.9149245797371,359.89524366337014)"
			filter="url(#llleaves-blur-2)" opacity="0.50"></path>
		<path d="M300 261H350C378 261 400 283 400 311H350C322 311 300 289 300 261Z "
			transform="matrix(-0.37291562520495974,-0.18188310319787143,0.18188310319787143,-0.37291562520495974,428.50190130714475,456.3129549278734)"
			opacity="0.64"></path>
		<path d="M576 261H626C654 261 676 283 676 311H626C598 311 576 289 576 261Z "
			transform="matrix(-0.2257572962544083,0.21052208456288518,-0.21052208456288518,-0.2257572962544083,827.5333836402448,218.77976179239465)"
			filter="url(#llleaves-blur-2)" opacity="0.47"></path>
		<path d="M12 726H62C90 726 112 748 112 776H62C34 776 12 754 12 726Z "
			transform="matrix(0.06511455084928977,0.20040198117942004,-0.20040198117942004,0.06511455084928977,208.46478571308847,689.6740494790594)"
			filter="url(#llleaves-blur-3)" opacity="0.32"></path>
		<path d="M101 130H151C179 130 201 152 201 180H151C123 180 101 158 101 130Z "
			transform="matrix(-0.11143138163887341,0.2502789809278648,-0.2502789809278648,-0.11143138163887341,206.61938067128892,134.47973803391778)"
			filter="url(#llleaves-blur-3)" opacity="0.42"></path>
		<path d="M622 448H672C700 448 722 470 722 498H672C644 498 622 476 622 448Z "
			transform="matrix(-0.22160576072575427,0.21400219556544317,-0.21400219556544317,-0.22160576072575427,922.1421097101615,434.010049403304)"
			filter="url(#llleaves-blur-2)" opacity="0.47"></path>
		<path d="M401 14H451C479 14 501 36 501 64H451C423 64 401 42 401 14Z "
			transform="matrix(-0.2520287963237365,-0.38809031333128347,0.38809031333128347,-0.2520287963237365,549.5294649220851,223.85785436903456)"
			opacity="0.71"></path>
		<path d="M136 21H186C214 21 236 43 236 71H186C158 71 136 49 136 21Z "
			transform="matrix(-0.33361804933206984,0.10199727356920281,-0.10199727356920281,-0.33361804933206984,252.74483175994834,42.37493738540349)"
			filter="url(#llleaves-blur-2)" opacity="0.53"></path>
		<path d="M526 650H576C604 650 626 672 626 700H576C548 700 526 678 526 650Z "
			transform="matrix(-0.2499267670887782,0.19526419080575458,-0.19526419080575458,-0.2499267670887782,851.7611466370206,731.2283938808107)"
			filter="url(#llleaves-blur-2)" opacity="0.49"></path>
		<path d="M545 496H595C623 496 645 518 645 546H595C567 546 545 524 545 496Z "
			transform="matrix(-0.23993721785166983,0.2013312310050389,-0.2013312310050389,-0.23993721785166983,842.6562159753688,526.2152080527218)"
			filter="url(#llleaves-blur-2)" opacity="0.48"></path>
		<path d="M206 433H256C284 433 306 455 306 483H256C228 483 206 461 206 433Z "
			transform="matrix(-0.38103264855277613,-0.033336037181625394,0.033336037181625394,-0.38103264855277613,338.2764530003262,641.0469785556675)"
			filter="url(#llleaves-blur-2)" opacity="0.59"></path>
	</g>
	<g fill="none" stroke-width="3" stroke="#f5a623">
		<path d="M240 534H290C318 534 340 556 340 584H290C262 584 240 562 240 534Z "
			transform="matrix(-0.382981741866492,-0.12443831123001005,0.12443831123001005,-0.382981741866492,331.50368916370707,809.1739039600719)"
			opacity="0.62"></path>
		<path d="M498 566H548C576 566 598 588 598 616H548C520 616 498 594 498 566Z "
			transform="matrix(-0.2846179986085077,0.16432427811283443,-0.16432427811283443,-0.2846179986085077,801.0863116021475,669.1595327717948)"
			filter="url(#llleaves-blur-2)" opacity="0.50"></path>
		<path d="M698 534H748C776 534 798 556 798 584H748C720 584 698 562 698 534Z "
			transform="matrix(-0.2261749082942241,0.21091151409016612,-0.21091151409016612,-0.2261749082942241,1035.0783677804825,527.669961197027)"
			filter="url(#llleaves-blur-2)" opacity="0.47"></path>
		<path d="M-1 398H49C77 398 99 420 99 448H49C21 448 -1 426 -1 398Z "
			transform="matrix(0.07365864380885191,0.19188732750661583,-0.19188732750661583,0.07365864380885191,126.55906598866476,382.43991462103145)"
			filter="url(#llleaves-blur-3)" opacity="0.31"></path>
		<path d="M416 623H466C494 623 516 645 516 673H466C438 673 416 651 416 623Z "
			transform="matrix(-0.3734750722253109,0.006519031634763526,-0.006519031634763526,-0.3734750722253109,644.2637161563217,886.9739780602016)"
			filter="url(#llleaves-blur-2)" opacity="0.57"></path>
		<path d="M325 483H375C403 483 425 505 425 533H375C347 533 325 511 325 483Z "
			transform="matrix(-0.37644829233710686,-0.16760557828389339,0.16760557828389339,-0.37644829233710686,431.0244758581972,762.0878243637103)"
			opacity="0.63"></path>
		<path d="M205 636H255C283 636 305 658 305 686H255C227 686 205 664 205 636Z "
			transform="matrix(-0.38103264855277613,-0.033336037181625394,0.033336037181625394,-0.38103264855277613,330.1282048039035,921.3632701746997)"
			filter="url(#llleaves-blur-2)" opacity="0.59"></path>
		<path d="M90 633H140C168 633 190 655 190 683H140C112 683 90 661 90 633Z "
			transform="matrix(-0.09669152868696812,0.25189004403094767,-0.25189004403094767,-0.09669152868696812,319.2804629885391,686.3584197116924)"
			filter="url(#llleaves-blur-3)" opacity="0.41"></path>
		<path d="M544 147H594C622 147 644 169 644 197H594C566 197 544 175 544 147Z "
			transform="matrix(-0.2676572873023454,0.1805371198803723,-0.1805371198803723,-0.2676572873023454,784.0408132770172,110.79800420706226)"
			filter="url(#llleaves-blur-2)" opacity="0.49"></path>
		<path d="M624 660H674C702 660 724 682 724 710H674C646 710 624 688 624 660Z "
			transform="matrix(-0.22160576072575427,0.21400219556544317,-0.21400219556544317,-0.22160576072575427,969.9537866914869,692.562466286033)"
			filter="url(#llleaves-blur-2)" opacity="0.47"></path>
		<path d="M1 279H51C79 279 101 301 101 329H51C23 329 1 307 1 279Z "
			transform="matrix(0.06511455084928977,0.20040198117942004,-0.20040198117942004,0.06511455084928977,108.60136018522991,273.9846755016655)"
			filter="url(#llleaves-blur-3)" opacity="0.32"></path>
		<path d="M0 158H50C78 158 100 180 100 208H50C22 208 0 186 0 158Z "
			transform="matrix(0.07613900687671558,0.18845065495273172,-0.18845065495273172,0.07613900687671558,80.67951951251413,159.64402899392445)"
			filter="url(#llleaves-blur-3)" opacity="0.31"></path>
		<path d="M509 420H559C587 420 609 442 609 470H559C531 470 509 448 509 420Z "
			transform="matrix(-0.2672063754170088,0.1802329759733673,-0.1802329759733673,-0.2672063754170088,788.5720381662563,463.1566034914566)"
			filter="url(#llleaves-blur-2)" opacity="0.49"></path>
		<path d="M318 608H368C396 608 418 630 418 658H368C340 658 318 636 318 608Z "
			transform="matrix(-0.37644829233710686,-0.16760557828389339,0.16760557828389339,-0.37644829233710686,400.4386405263508,932.9706218578615)"
			opacity="0.63"></path>
		<path d="M598 14H648C676 14 698 36 698 64H648C620 64 598 42 598 14Z "
			transform="matrix(-0.2673402308237698,0.18032326258525297,-0.18032326258525297,-0.2673402308237698,828.2690768146277,-67.4232051531169)"
			filter="url(#llleaves-blur-2)" opacity="0.49"></path>
		<path d="M697 8H747C775 8 797 30 797 58H747C719 58 697 36 697 8Z "
			transform="matrix(-0.021407098496877202,0.24468425546966996,-0.24468425546966996,-0.021407098496877202,771.0656830076664,-149.0727045854465)"
			filter="url(#llleaves-blur-3)" opacity="0.38"></path>
	</g>
</svg>
